# xmcd
#
# Track frame offsets:
#	180
#	14597
#	29665
#	41152
#	53300
#	66553
#	80068
#	93929
#	108658
#	122999
#
# Disc length: 1869 seconds
#
# Revision: 1
# Processed by: cddbd v1.5.1PL2 Copyright (c) Steve Scherf et al.
# Submitted via: audiograbber 1.83.01
#
DISCID=8d074b0a
DTITLE=Josefa - Porque Te Vas
DYEAR=2000
DGENRE=Tejano
TTITLE0=Porque Te Vas
TTITLE1=No Se Por Que
TTITLE2=Que Vuelva Conmigo
TTITLE3=Dime
TTITLE4=No Tengo Culpa
TTITLE5=Dichoso Soy
TTITLE6=Do I Love You
TTITLE7=Tus Ojos Castanos
TTITLE8=No Te Beso Mas
TTITLE9=Para Ser Feliz
EXTD=
EXTT0=
EXTT1=
EXTT2=
EXTT3=
EXTT4=
EXTT5=
EXTT6=
EXTT7=
EXTT8=
EXTT9=
PLAYORDER=
